<svg width="512" height="512" viewBox="0 0 512 512" fill="none" xmlns="http://www.w3.org/2000/svg">
  <rect width="512" height="512" rx="120" fill="#0F3D3E"/>
  <path d="M132 328C132 275.2 174.2 232 227 232H365C377.7 232 388 221.7 388 209C388 196.3 377.7 186 365 186H227C149.1 186 86 249.1 86 327V356C86 400.2 121.8 436 166 436H346C390.2 436 426 400.2 426 356V328C426 283.8 390.2 248 346 248H227C197.8 248 174 271.8 174 301C174 330.2 197.8 354 227 354H346C360.4 354 372 342.4 372 328C372 313.6 360.4 302 346 302H227" stroke="#F0E4D3" stroke-width="26" stroke-linecap="round" stroke-linejoin="round"/>
  <circle cx="188" cy="174" r="46" fill="#D17A42"/>
</svg>
